# xmcd
#
# Track frame offsets: 
#        150
#        15054
#        30409
#        48367
#        66218
#        84889
#        100843
#        111940
#        124753
#        139942
#        158269
#        160454
#        180536
#
# Disc length: 2627 seconds
#
# Revision: 0
# Processed by: cddbd v1.5.2PL0 Copyright (c) Steve Scherf et al.
# Submitted via: ExactAudioCopy v1.3
#
DISCID=930a410d
DTITLE=Anthony Gomes - Electric Field Holler (bonus edition)
DYEAR=2015
DGENRE=Blues Rock
TTITLE0=Turn It Up!
TTITLE1=Back Door Scratchin'
TTITLE2=Whiskey Train
TTITLE3=Blueschild
TTITLE4=Nowhere Is Home
TTITLE5=Losing Game
TTITLE6=The Blues Ain't The Blues No More
TTITLE7=Junk In The Trunk
TTITLE8=Love Crazy
TTITLE9=Red Handed Blues
TTITLE10=Delta Raga
TTITLE11=Listen To The Universe
TTITLE12=It's The Way (You Make Me Feel) (bonus)
EXTD=
EXTT0=
EXTT1=
EXTT2=
EXTT3=
EXTT4=
EXTT5=
EXTT6=
EXTT7=
EXTT8=
EXTT9=
EXTT10=
EXTT11=
EXTT12=
PLAYORDER=
